<svg height="124" width="708" viewBox="0 0 708 124" focusable="false"><path d="M617.282 112.126c0 6.558-5.315 11.874-11.874 11.874-6.56 0-11.874-5.316-11.874-11.874V56.213c0-6.559 5.314-11.875 11.874-11.875 6.56 0 11.874 5.316 11.874 11.875v55.913zm3.46-96.352c0 8.47-6.865 15.334-15.334 15.334-8.47 0-15.334-6.864-15.334-15.334 0-8.47 6.864-15.334 15.334-15.334 8.47 0 15.334 6.864 15.334 15.334zm33.439 39.867v1.945c2.864-4.644 6.915-8.226 12.155-10.748 5.236-2.518 11.264-3.78 18.082-3.78 5.04 0 9.117.915 12.23 2.743 3.11 1.83 5.507 4.202 7.187 7.116 1.682 2.917 2.792 6.104 3.337 9.56.54 3.46.814 6.819.814 10.08v51.202H684.27V78.633c0-5.135-.963-8.868-2.89-11.19-1.927-2.322-4.471-3.484-7.634-3.484-1.68 0-3.385.347-5.113 1.037a19.022 19.022 0 0 0-4.891 2.892c-1.535 1.236-2.942 2.693-4.224 4.37a19.626 19.626 0 0 0-2.966 5.488v46.013h-23.716V55.074c.07-5.712 4.62-10.333 10.304-10.533h.756a10.67 10.67 0 0 1 10.285 10.236v.864zM223.105 68.034c-1.68-4.99-4-9.313-6.966-12.972-2.964-3.652-6.499-6.544-10.597-8.67-4.103-2.123-8.623-3.187-13.563-3.187-5.929 0-11.043 1.26-15.342 3.78-4.299 2.52-7.733 6.005-10.303 10.449V12.386h-.014c0-.034.006-.066.006-.1 0-6.541-5.304-11.845-11.845-11.845-6.543 0-11.846 5.304-11.846 11.845 0 .034.005.066.005.1h-.02v111.519h.674v.013h22.9v-10.184a27.272 27.272 0 0 0 7.627 6.477c4.395 2.517 9.56 3.779 15.49 3.779 5.137 0 9.931-1.016 14.377-3.04a34.928 34.928 0 0 0 11.562-8.449c3.26-3.606 5.803-7.857 7.634-12.747 1.827-4.892 2.742-10.154 2.742-15.787 0-5.633-.84-10.942-2.52-15.933zm-23.122 23.862c-.89 2.424-2.149 4.522-3.78 6.302-1.63 1.778-3.609 3.186-5.93 4.225-2.32 1.037-4.867 1.555-7.634 1.555-3.26 0-6.373-.962-9.336-2.89-2.966-1.927-5.288-4.57-6.969-7.93V76.852c1.681-3.852 4.077-7.064 7.19-9.635 3.113-2.568 6.545-3.853 10.302-3.853 2.568 0 4.914.543 7.04 1.63 2.125 1.087 3.978 2.57 5.56 4.447 1.578 1.878 2.79 4.076 3.63 6.595.84 2.52 1.261 5.164 1.261 7.93 0 2.868-.445 5.51-1.334 7.93zM348.95 55.788v1.944c2.865-4.643 6.916-8.226 12.156-10.747 5.235-2.519 11.264-3.779 18.082-3.779 5.04 0 9.116.914 12.229 2.742 3.112 1.83 5.507 4.201 7.188 7.115 1.682 2.917 2.792 6.104 3.337 9.561.54 3.46.813 6.818.813 10.08v51.201h-23.716V78.778c0-5.134-.962-8.867-2.89-11.189-1.927-2.322-4.471-3.485-7.633-3.485-1.681 0-3.386.347-5.113 1.038a18.982 18.982 0 0 0-4.892 2.892c-1.534 1.235-2.941 2.692-4.224 4.371a19.583 19.583 0 0 0-2.965 5.487v46.012h-23.717V55.22c.072-5.712 4.62-10.334 10.305-10.533h.755a10.67 10.67 0 0 1 10.285 10.235v.865zm-227.822-.5c-3.558-3.706-7.907-6.646-13.043-8.822-5.141-2.172-11.021-3.26-17.64-3.26-6.621 0-12.526 1.088-17.713 3.26-5.188 2.176-9.56 5.14-13.118 8.896-3.558 3.756-6.277 8.128-8.153 13.118-1.878 4.99-2.816 10.3-2.816 15.934 0 4.544.708 8.919 2.122 13.126-1.157 1.7-2.709 3.138-4.697 4.289-2.471 1.436-5.188 2.15-8.153 2.15a15.81 15.81 0 0 1-6.745-1.481 16.915 16.915 0 0 1-5.557-4.15c-.706-.792-1.898-2.462-1.898-8.668V12.34C23.72 5.744 18.416.44 11.874.44 5.348.44.056 5.72.031 12.24L0 96.085c0 7.008 4.246 12.53 7.308 15.675 3.607 3.705 8.005 6.67 13.192 8.895a38.966 38.966 0 0 0 5.375 1.83c3.767.996 7.826 1.505 12.191 1.505 8.99 0 16.624-1.927 22.901-5.783a41.84 41.84 0 0 0 3.26-2.241 40.858 40.858 0 0 0 8.653 4.836c5.188 2.123 11.043 3.188 17.565 3.188 8.991 0 16.699-1.927 23.124-5.783 6.423-3.852 11.165-8.842 14.229-14.97l-20.158-5.632c-.649 1.71-1.675 3.208-3.078 4.494-.95.872-2.075 1.646-3.371 2.324-3.213 1.68-6.546 2.519-10.005 2.519-4.35 0-8.226-1.356-11.635-4.074-3.409-2.717-5.314-6.696-5.708-11.934h57.513c.196-.985.345-2.15.445-3.482.096-1.334.147-2.692.147-4.076 0-5.337-.914-10.426-2.742-15.268-1.828-4.84-4.521-9.116-8.078-12.821zM73.398 76.26c.494-4.84 2.248-8.72 5.263-11.637 3.012-2.914 6.842-4.371 11.487-4.371 4.546 0 8.349 1.433 11.413 4.298 3.063 2.867 4.842 6.77 5.337 11.71h-33.5zm504.56-7.931c-1.878-4.89-4.595-9.19-8.153-12.895-3.556-3.706-7.907-6.671-13.043-8.895-5.139-2.22-11.02-3.334-17.639-3.334-6.622 0-12.526 1.114-17.713 3.334-5.189 2.224-9.56 5.19-13.119 8.895-3.556 3.705-6.25 8.006-8.078 12.895-1.829 4.892-2.742 10.005-2.742 15.342 0 5.336.913 10.45 2.742 15.341 1.827 4.894 4.522 9.19 8.078 12.895 3.558 3.709 7.93 6.65 13.12 8.822 5.186 2.171 11.09 3.26 17.712 3.26 6.62 0 12.524-1.089 17.713-3.26 5.188-2.172 9.56-5.114 13.118-8.822 3.558-3.704 6.248-8.001 8.078-12.894 1.828-4.892 2.743-10.006 2.743-15.343s-.94-10.45-2.817-15.341zm-22.975 23.568c-.89 2.52-2.1 4.671-3.632 6.45a16.407 16.407 0 0 1-5.41 4.15c-2.075.987-4.35 1.481-6.818 1.481-5.04 0-9.19-1.852-12.452-5.557-3.26-3.706-4.89-8.623-4.89-14.75 0-2.964.444-5.706 1.334-8.227.89-2.519 2.097-4.668 3.632-6.447a16.09 16.09 0 0 1 5.483-4.15c2.124-.987 4.422-1.481 6.893-1.481 4.94 0 9.042 1.852 12.302 5.558 3.262 3.704 4.892 8.62 4.892 14.746 0 2.966-.444 5.709-1.334 8.227zm-249.76-36.464c-3.557-3.705-7.907-6.67-13.044-8.894-5.14-2.22-11.02-3.334-17.64-3.334-6.62 0-12.523 1.114-17.713 3.334-5.186 2.224-9.56 5.19-13.116 8.895-3.56 3.705-6.253 8.006-8.08 12.895-1.83 4.892-2.742 10.005-2.742 15.342 0 5.336.913 10.45 2.742 15.341 1.827 4.894 4.52 9.19 8.08 12.895 3.556 3.709 7.93 6.65 13.116 8.822 5.19 2.171 11.093 3.26 17.714 3.26 6.619 0 12.526-1.089 17.713-3.26 5.189-2.172 9.56-5.114 13.118-8.822 3.558-3.704 6.25-8.001 8.079-12.894 1.828-4.892 2.742-10.006 2.742-15.343s-.94-10.45-2.815-15.341c-1.88-4.89-4.595-9.19-8.153-12.895zM290.4 91.898c-.89 2.52-2.101 4.671-3.631 6.45-1.534 1.777-3.335 3.162-5.411 4.15-2.074.987-4.35 1.481-6.818 1.481-5.04 0-9.19-1.852-12.45-5.557-3.261-3.706-4.893-8.623-4.893-14.75 0-2.964.445-5.706 1.335-8.227.889-2.519 2.098-4.668 3.63-6.447a16.108 16.108 0 0 1 5.486-4.15c2.124-.987 4.42-1.481 6.892-1.481 4.94 0 9.042 1.852 12.303 5.558 3.26 3.704 4.892 8.62 4.892 14.746 0 2.966-.445 5.709-1.335 8.227zm173.127 9.931c-2.47 1.436-5.188 2.15-8.153 2.15-2.37 0-4.62-.494-6.744-1.48a16.898 16.898 0 0 1-5.558-4.152c-1.583-1.778-2.816-3.928-3.706-6.45-.889-2.517-1.334-5.309-1.334-8.373 0-6.126 1.653-11.017 4.966-14.674 3.31-3.656 7.433-5.484 12.376-5.484 5.93 0 10.425 2.47 13.488 7.411l23.124-6.966c-3.064-6.128-7.659-11.093-13.784-14.897-6.128-3.804-13.689-5.708-22.679-5.708-6.622 0-12.525 1.088-17.714 3.26-5.187 2.175-9.559 5.116-13.118 8.822-3.558 3.705-6.276 8.002-8.152 12.895-1.879 4.891-2.816 10.004-2.816 15.341s.937 10.45 2.816 15.342c1.876 4.89 4.618 9.19 8.226 12.895 3.607 3.705 8.005 6.67 13.192 8.894 5.188 2.225 11.044 3.335 17.566 3.335 8.99 0 16.624-1.927 22.901-5.782 6.274-3.853 10.843-8.794 13.71-14.82L469.01 96.27c-1.184 2.276-3.014 4.128-5.483 5.558z" fill="#FFF"></path></svg>